<svg width="202" height="195" viewBox="0 0 202 195" fill="none" xmlns="http://www.w3.org/2000/svg">
<path d="M28.4332 151.993H35.6133C37.9428 151.993 39.698 152.392 40.8787 153.19C42.0913 153.987 42.6976 155.376 42.6976 157.354V183.873C42.6976 184.99 42.5221 185.724 42.1711 186.075C41.852 186.426 41.1499 186.601 40.0649 186.601H35.0389V157.929C35.0389 157.418 34.9591 157.067 34.7995 156.875C34.6719 156.652 34.3209 156.54 33.7465 156.54H28.4332V151.993ZM11.0573 186.601H6.03128C4.94629 186.601 4.22828 186.426 3.87725 186.075C3.55814 185.724 3.39858 184.99 3.39858 183.873V153.908C3.39858 153.333 3.55814 152.871 3.87725 152.52C4.19637 152.169 4.61122 151.993 5.1218 151.993H11.0573V186.601ZM13.0199 151.993H25.2739C25.7845 151.993 26.1994 152.169 26.5185 152.52C26.8376 152.871 26.9972 153.333 26.9972 153.908V183.107H22.019C21.0616 183.107 20.3755 182.851 19.9607 182.341C19.5458 181.798 19.3384 180.937 19.3384 179.756V157.929C19.3384 157.418 19.2586 157.067 19.0991 156.875C18.9714 156.652 18.6204 156.54 18.046 156.54H13.0199V151.993ZM60.278 151.993V165.635C60.278 166.146 60.3578 166.513 60.5174 166.736C60.6769 166.928 61.0439 167.023 61.6183 167.023H63.3415V171.571H55.8742C54.6616 171.571 53.8159 171.299 53.3373 170.757C52.8586 170.183 52.6193 169.305 52.6193 168.124V154.243C52.6193 152.743 53.4968 151.993 55.252 151.993H60.278ZM68.0804 186.601H62.097C61.012 186.601 60.294 186.426 59.943 186.075C59.6238 185.724 59.4643 184.99 59.4643 183.873V176.214C59.4643 175.097 59.6238 174.363 59.943 174.012C60.294 173.661 61.012 173.485 62.097 173.485H68.0804V186.601ZM67.6975 151.993H72.7235C73.6809 151.993 74.351 152.184 74.734 152.567C75.1488 152.95 75.3562 153.668 75.3562 154.721V168.22C75.3562 170.454 74.4308 171.571 72.5799 171.571H65.2562V167.023H66.405C66.9795 167.023 67.3305 166.912 67.4581 166.688C67.6177 166.465 67.6975 166.114 67.6975 165.635V151.993ZM92.9647 186.601H87.9386C86.8536 186.601 86.1356 186.426 85.7846 186.075C85.4655 185.724 85.3059 184.99 85.3059 183.873V154.721C85.3059 153.605 85.4655 152.871 85.7846 152.52C86.1356 152.169 86.8536 151.993 87.9386 151.993H92.9647V186.601ZM127.611 169.225L127.658 177.315C127.658 181.112 127.18 183.617 126.222 184.83C125.265 186.011 123.526 186.601 121.005 186.601H113.968V182.054H117.511C118.308 182.054 118.835 181.958 119.09 181.766C119.345 181.575 119.473 181.208 119.473 180.666V157.976C119.473 157.402 119.345 157.019 119.09 156.828C118.835 156.636 118.308 156.54 117.511 156.54H113.968V151.993H121.483C123.813 151.993 125.425 152.536 126.318 153.621C127.244 154.674 127.706 156.748 127.706 159.843L127.611 169.225ZM112.532 186.649H107.506C106.453 186.649 105.751 186.473 105.4 186.122C105.049 185.739 104.874 185.005 104.874 183.921V154.721C104.874 153.636 105.049 152.918 105.4 152.567C105.751 152.184 106.453 151.993 107.506 151.993H112.532V186.649ZM147.633 151.993V180.666C147.633 181.144 147.745 181.495 147.968 181.719C148.223 181.942 148.766 182.054 149.595 182.054H153.138V186.601H147.058C145.782 186.601 144.713 186.505 143.851 186.314C143.022 186.122 142.288 185.739 141.649 185.165C141.043 184.559 140.564 183.889 140.213 183.155C139.894 182.421 139.639 181.32 139.448 179.852C139.16 177.65 139.017 174.698 139.017 170.996C139.017 167.263 139.033 164.63 139.065 163.098C139.128 161.566 139.256 160.083 139.448 158.647C139.639 157.179 139.894 156.094 140.213 155.392C140.564 154.658 141.043 154.003 141.649 153.429C142.288 152.823 143.022 152.44 143.851 152.28C144.713 152.089 145.782 151.993 147.058 151.993H147.633ZM149.548 152.041H155.627C156.903 152.041 157.956 152.137 158.786 152.328C159.648 152.52 160.382 152.918 160.988 153.525C161.626 154.099 162.105 154.753 162.424 155.487C162.775 156.221 163.046 157.322 163.238 158.79C163.525 160.992 163.668 163.96 163.668 167.693C163.668 171.395 163.637 174.012 163.573 175.544C163.541 177.075 163.429 178.575 163.238 180.043C163.046 181.479 162.775 182.564 162.424 183.298C162.105 184 161.626 184.654 160.988 185.261C160.382 185.835 159.648 186.218 158.786 186.41C157.956 186.569 156.903 186.649 155.627 186.649H155.052V157.976C155.052 157.498 154.925 157.147 154.669 156.923C154.446 156.7 153.919 156.588 153.09 156.588H149.548V152.041ZM190.172 176.166H196.873C197.224 176.166 197.4 176.389 197.4 176.836V185.261C197.4 186.154 196.953 186.601 196.059 186.601H184.475V182.054H188.927C189.438 182.054 189.693 182.006 189.693 181.91C189.725 181.782 189.741 181.639 189.741 181.479V176.693C189.741 176.437 189.773 176.294 189.837 176.262C189.9 176.198 190.012 176.166 190.172 176.166ZM182.8 186.601H177.774C176.689 186.601 175.971 186.426 175.62 186.075C175.301 185.724 175.141 184.99 175.141 183.873V154.721C175.141 153.605 175.301 152.871 175.62 152.52C175.971 152.169 176.689 151.993 177.774 151.993H182.8V186.601Z" fill="white"/>
<path fill-rule="evenodd" clip-rule="evenodd" d="M101.429 0.749023C107.823 0.749023 114.007 1.64505 119.863 3.31838L111.257 51.7753C108.444 50.098 105.157 49.1344 101.645 49.1344C91.2655 49.1344 82.8516 57.5483 82.8516 67.9274C82.8516 78.3064 91.2655 86.7204 101.645 86.7204C112.024 86.7204 120.438 78.3064 120.438 67.9274C120.438 67.594 120.429 67.2627 120.412 66.9336L130.952 7.59135C153.13 18.5028 168.393 41.3253 168.393 67.7125C168.393 104.695 138.412 134.676 101.429 134.676C64.4464 134.676 34.4658 104.695 34.4658 67.7125C34.4658 30.7296 64.4464 0.749023 101.429 0.749023ZM61.6824 35.3103C52.1778 46.5429 38.8714 74.7108 61.6824 97.5216C55.1299 88.1611 45.9566 62.6142 61.6824 35.3103ZM65.9087 47.839C62.6685 54.8954 58.1322 72.2483 65.9087 85.209C61.0844 79.8807 54.3304 64.9471 65.9087 47.839ZM121.488 111.388C135.374 106.521 161.12 88.9814 153.015 57.7568C153.92 69.1468 148.882 95.8192 121.488 111.388ZM124.194 98.4456C130.563 94.0044 143.268 81.3436 143.132 66.2295C144.59 73.2678 142.845 89.5644 124.194 98.4456Z" fill="white"/>
</svg>
