<svg width="321" height="47" viewBox="0 0 321 47" fill="none" xmlns="http://www.w3.org/2000/svg">
<path d="M22.3817 10.7576H28.0336C29.8674 10.7576 31.249 11.0716 32.1784 11.6996C33.1329 12.3276 33.6102 13.4203 33.6102 14.9778V35.8523C33.6102 36.7315 33.472 37.3092 33.1957 37.5855C32.9445 37.8618 32.3919 38 31.5378 38H27.5815V15.4299C27.5815 15.028 27.5187 14.7517 27.3931 14.601C27.2926 14.4251 27.0163 14.3372 26.5641 14.3372H22.3817V10.7576ZM8.70399 38H4.74763C3.89356 38 3.32837 37.8618 3.05205 37.5855C2.80085 37.3092 2.67525 36.7315 2.67525 35.8523V12.2648C2.67525 11.8127 2.80085 11.4484 3.05205 11.1721C3.30325 10.8958 3.6298 10.7576 4.03172 10.7576H8.70399V38ZM10.2489 10.7576H19.8948C20.2967 10.7576 20.6233 10.8958 20.8745 11.1721C21.1257 11.4484 21.2513 11.8127 21.2513 12.2648V35.2494H17.3326C16.579 35.2494 16.039 35.0484 15.7124 34.6465C15.3858 34.2195 15.2226 33.5412 15.2226 32.6118V15.4299C15.2226 15.028 15.1598 14.7517 15.0342 14.601C14.9337 14.4251 14.6574 14.3372 14.2052 14.3372H10.2489V10.7576ZM47.4489 10.7576V21.4963C47.4489 21.8982 47.5117 22.1871 47.6373 22.363C47.7629 22.5137 48.0518 22.589 48.504 22.589H49.8604V26.1686H43.9824C43.0279 26.1686 42.3622 25.9551 41.9854 25.5281C41.6086 25.0759 41.4202 24.3851 41.4202 23.4557V12.5286C41.4202 11.348 42.111 10.7576 43.4926 10.7576H47.4489ZM53.5907 38H48.8808C48.0267 38 47.4615 37.8618 47.1852 37.5855C46.934 37.3092 46.8084 36.7315 46.8084 35.8523V29.8235C46.8084 28.9443 46.934 28.3666 47.1852 28.0903C47.4615 27.8139 48.0267 27.6758 48.8808 27.6758H53.5907V38ZM53.2893 10.7576H57.2456C57.9992 10.7576 58.5267 10.9084 58.8282 11.2098C59.1547 11.5112 59.318 12.0764 59.318 12.9054V23.531C59.318 25.2894 58.5895 26.1686 57.1326 26.1686H51.3676V22.589H52.2719C52.7241 22.589 53.0004 22.5011 53.1009 22.3253C53.2265 22.1494 53.2893 21.8731 53.2893 21.4963V10.7576ZM73.1788 38H69.2224C68.3684 38 67.8032 37.8618 67.5269 37.5855C67.2757 37.3092 67.1501 36.7315 67.1501 35.8523V12.9054C67.1501 12.0262 67.2757 11.4484 67.5269 11.1721C67.8032 10.8958 68.3684 10.7576 69.2224 10.7576H73.1788V38ZM100.451 24.3223L100.489 30.6902C100.489 33.6794 100.112 35.6513 99.3582 36.6059C98.6046 37.5353 97.2356 38 95.2511 38H89.7122V34.4204H92.5005C93.1285 34.4204 93.543 34.3451 93.7439 34.1944C93.9449 34.0436 94.0453 33.7548 94.0453 33.3277V15.4676C94.0453 15.0154 93.9449 14.714 93.7439 14.5633C93.543 14.4126 93.1285 14.3372 92.5005 14.3372H89.7122V10.7576H95.6279C97.4616 10.7576 98.7302 11.1847 99.4335 12.0388C100.162 12.8677 100.526 14.5005 100.526 16.9371L100.451 24.3223ZM88.5818 38.0377H84.6254C83.7965 38.0377 83.2439 37.8995 82.9675 37.6232C82.6912 37.3218 82.5531 36.744 82.5531 35.8899V12.9054C82.5531 12.0513 82.6912 11.4861 82.9675 11.2098C83.2439 10.9084 83.7965 10.7576 84.6254 10.7576H88.5818V38.0377ZM168.603 29.7858H173.878C174.154 29.7858 174.293 29.9617 174.293 30.3134V36.945C174.293 37.6483 173.941 38 173.238 38H164.119V34.4204H167.623C168.025 34.4204 168.226 34.3828 168.226 34.3074C168.251 34.2069 168.264 34.0939 168.264 33.9683V30.2003C168.264 29.9994 168.289 29.8863 168.339 29.8612C168.389 29.811 168.477 29.7858 168.603 29.7858ZM162.8 38H158.844C157.99 38 157.425 37.8618 157.148 37.5855C156.897 37.3092 156.772 36.7315 156.772 35.8523V12.9054C156.772 12.0262 156.897 11.4484 157.148 11.1721C157.425 10.8958 157.99 10.7576 158.844 10.7576H162.8V38Z" fill="white"/>
<path fill-rule="evenodd" clip-rule="evenodd" d="M129.774 0.616211C131.948 0.616211 134.051 0.920931 136.043 1.49L133.116 17.9697C132.16 17.3994 131.042 17.0718 129.847 17.0718C126.318 17.0718 123.456 19.9333 123.456 23.4632C123.456 26.993 126.318 29.8545 129.847 29.8545C133.377 29.8545 136.239 26.993 136.239 23.4632C136.239 23.3491 136.236 23.2357 136.23 23.1231L139.814 2.94318C147.357 6.65407 152.548 14.4159 152.548 23.3901C152.548 35.9678 142.352 46.164 129.774 46.164C117.196 46.164 107 35.9678 107 23.3901C107 10.8124 117.196 0.616211 129.774 0.616211ZM116.256 12.3706C113.024 16.1907 108.498 25.7705 116.256 33.5283C114.028 30.3449 110.908 21.6565 116.256 12.3706ZM117.694 16.6315C116.592 19.0314 115.049 24.933 117.694 29.3408C116.053 27.5287 113.756 22.4499 117.694 16.6315ZM136.596 38.2438C141.319 36.5886 150.075 30.6234 147.318 20.0041C147.626 23.8778 145.913 32.9489 136.596 38.2438ZM137.516 33.8421C139.683 32.3317 144.003 28.0258 143.957 22.8856C144.453 25.2793 143.86 30.8217 137.516 33.8421Z" fill="white"/>
</svg>
